# xmcd
#
# Track frame offsets:
#	150
#	14902
#	26487
#	42447
#	55325
#	69517
#	79345
#	94792
#	108792
#	127797
#	141467
#	154165
#	168972
#
# Disc length: 2460 seconds
#
# Revision: 1
# Processed by: cddbd v1.4PL0 Copyright (c) Steve Scherf et al.
# Submitted via: audiograbber 1.81.02
#
DISCID=ad099a0d
DTITLE=Tchê Campeiro - Chora, Chora "Muié Véia"
DYEAR=1900
DGENRE=Country
TTITLE0=Chora, Chora "Muié Véia"
TTITLE1=Arroz com Charqe, Pão com Banha
TTITLE2=Na Doma sou doutor
TTITLE3=Lidas do Rincão
TTITLE4=Vai meu cavalo
TTITLE5=Mancada Campeira
TTITLE6=Gaucinha bem querer
TTITLE7=Tranco Fandangueiro
TTITLE8=Partida
TTITLE9=Direitos do Bugio
TTITLE10="Ela que um fio Meu"
TTITLE11=Fandango Largado
TTITLE12=Vai Saudade
EXTD=
EXTT0=
EXTT1=
EXTT2=
EXTT3=
EXTT4=
EXTT5=
EXTT6=
EXTT7=
EXTT8=
EXTT9=
EXTT10=
EXTT11=
EXTT12=
PLAYORDER=
